<?xml version="1.0" encoding="UTF-8"?>
<svg version="1.1" xmlns="http://www.w3.org/2000/svg" width="512" height="512">
<path d="M0 0 C1.43845027 1.20360125 2.85450394 2.43434962 4.25 3.6875 C5.07113281 4.41582031 5.89226562 5.14414062 6.73828125 5.89453125 C18.48346979 16.92681001 27.3167415 32.47121225 29.25 48.6875 C29.26049347 51.02080974 29.26134975 53.35419427 29.25 55.6875 C30.14678467 55.68083817 31.04356934 55.67417633 31.9675293 55.66731262 C40.44150753 55.60706487 48.91541325 55.56145628 57.38955688 55.53206348 C61.7456378 55.51644407 66.10154092 55.49527431 70.45751953 55.46118164 C74.66559585 55.42845471 78.87350174 55.410619 83.08169556 55.40286827 C84.6827767 55.3973486 86.28384909 55.38657021 87.88485718 55.37030983 C107.61529237 55.17798986 107.61529237 55.17798986 115.52396452 62.77368116 C122.04815502 70.00766843 122.97711441 77.86605328 122.88491821 87.24987793 C122.89271817 88.48051578 122.90051812 89.71115363 122.90855443 90.97908354 C122.92496637 94.36955282 122.91917216 97.75862342 122.90362334 101.14900565 C122.89226131 104.81508767 122.90979644 108.48105177 122.92352295 112.14710999 C122.94570845 119.31875563 122.94097521 126.49013903 122.92645974 133.66179478 C122.91514897 139.49244209 122.91364454 145.32301612 122.91907883 151.15367126 C122.91984499 151.98481287 122.92061116 152.81595447 122.92140054 153.67228219 C122.92299923 155.36094656 122.9246203 157.0496109 122.9262635 158.73827523 C122.94050726 174.55769655 122.92414986 190.37697278 122.89726166 206.1963703 C122.87492411 219.75810205 122.87880463 233.31961977 122.90185547 246.88134766 C122.92863778 262.64573389 122.93913409 278.40999309 122.92379415 294.1743989 C122.92220147 295.85670882 122.92062962 297.53901877 122.91907883 299.22132874 C122.91830745 300.04896893 122.91753607 300.87660912 122.91674132 301.72932932 C122.9124316 307.55021043 122.91969513 313.37101069 122.93147659 319.19187927 C122.94552719 326.28959724 122.94164814 333.38703888 122.91507287 340.48472536 C122.90196881 344.10331445 122.89672324 347.7214435 122.91331863 351.34002876 C122.93106287 355.26865103 122.90981819 359.19652672 122.88491821 363.12512207 C122.89607182 364.2603479 122.90722543 365.39557372 122.91871703 366.56520033 C122.81983341 374.62109475 121.24126984 381.79108775 115.28958952 387.60131884 C107.395871 394.09534089 99.63935382 395.12807402 89.75 394.875 C88.73679687 394.86146484 87.72359375 394.84792969 86.6796875 394.83398438 C84.20255596 394.79893063 81.72657073 394.74979764 79.25 394.6875 C79.27094727 395.30157715 79.29189453 395.9156543 79.31347656 396.54833984 C79.39768034 399.38622017 79.44898423 402.22383652 79.5 405.0625 C79.53351563 406.02800781 79.56703125 406.99351562 79.6015625 407.98828125 C79.71520908 416.45495151 77.68909026 422.88538871 73.125 430 C65.53571038 437.09433595 57.81121558 438.42121584 47.71212769 438.31568909 C46.48416226 438.32278347 45.25619683 438.32987786 43.99102032 438.33718723 C40.60807976 438.35167179 37.22655428 438.34393939 33.84371924 438.3264643 C30.18586514 438.31303483 26.52811388 438.32854712 22.87026978 438.34028625 C15.71532746 438.35862475 8.56065901 438.35017652 1.40572535 438.33219803 C-4.41015814 438.31815046 -10.22596748 438.31428385 -16.0418663 438.3176403 C-17.28528184 438.31835647 -17.28528184 438.31835647 -18.55381688 438.3190871 C-20.2379757 438.32011346 -21.92213451 438.32116882 -23.60629331 438.32225286 C-38.48384006 438.33081197 -53.36125488 438.31416942 -68.23876953 438.28442383 C-82.66656025 438.25557791 -97.094161 438.24850883 -111.52197266 438.26391602 C-127.2460473 438.28068454 -142.97003184 438.28470656 -158.69410884 438.26720566 C-160.37132763 438.26536132 -162.04854642 438.2635266 -163.72576523 438.26170158 C-164.55092273 438.26078949 -165.37608024 438.2598774 -166.22624252 438.25893768 C-172.03452227 438.25333713 -177.84275795 438.25663486 -183.65103531 438.26324654 C-190.73011779 438.27098517 -197.80901344 438.26420781 -204.88805832 438.2390715 C-208.49823718 438.22658985 -212.10812534 438.22041357 -215.71831512 438.23161316 C-219.63442065 438.24353227 -223.55002638 438.2243699 -227.46609497 438.2021637 C-228.60325553 438.21040446 -229.74041609 438.21864523 -230.91203606 438.22713572 C-238.80310554 438.14448524 -244.15164203 436.88032874 -250.2109375 431.50390625 C-251.15839844 430.38822266 -251.15839844 430.38822266 -252.125 429.25 C-252.77210938 428.50878906 -253.41921875 427.76757812 -254.0859375 427.00390625 C-259.44913551 419.5382339 -258.89604445 410.81432577 -258.88371277 402.01701355 C-258.88597833 400.83400691 -258.88824388 399.65100027 -258.89057809 398.43214494 C-258.89580766 395.15660961 -258.89656393 391.88110885 -258.89538372 388.60557067 C-258.8951794 385.06967965 -258.9007014 381.53379676 -258.90544128 377.99790955 C-258.91374172 371.07345289 -258.91649585 364.14900475 -258.91705366 357.22454353 C-258.91752911 351.59499488 -258.9195853 345.96544903 -258.92275429 340.33590126 C-258.93155921 324.36905646 -258.93617392 308.40221837 -258.93542381 292.43537112 C-258.93536388 291.14466344 -258.93536388 291.14466344 -258.93530273 289.82788086 C-258.93524141 288.53559414 -258.93524141 288.53559414 -258.93517885 287.21720061 C-258.93477243 273.25595341 -258.94434149 259.29473319 -258.9584411 245.33349379 C-258.97280998 230.99227108 -258.979711 216.65106153 -258.97884732 202.30983144 C-258.97851553 194.26070823 -258.98125485 186.21161329 -258.99202538 178.16249657 C-259.0011371 171.30921641 -259.0033001 164.45597735 -258.99651595 157.60269376 C-258.99325414 154.10792347 -258.99318177 150.613232 -259.0018692 147.11846924 C-259.00958113 143.32522154 -259.00494934 139.53218059 -258.99723816 135.73893738 C-259.00238172 134.64087066 -259.00752529 133.54280395 -259.01282471 132.41146249 C-258.96828148 122.48924096 -258.2338244 114.13683494 -250.88671875 106.8359375 C-242.48088138 99.14245923 -234.38177147 98.5090447 -223.3125 98.625 C-222.48556641 98.62951172 -221.65863281 98.63402344 -220.80664062 98.63867188 C-218.78772854 98.65034189 -216.76885426 98.66827282 -214.75 98.6875 C-214.77094727 98.07342285 -214.79189453 97.4593457 -214.81347656 96.82666016 C-214.89768034 93.98877983 -214.94898423 91.15116348 -215 88.3125 C-215.03351563 87.34699219 -215.06703125 86.38148438 -215.1015625 85.38671875 C-215.21827996 76.6912677 -213.42319481 69.42281857 -207.5625 62.8125 C-201.22909596 56.43099415 -193.47496758 55.26265179 -184.85149002 55.22352791 C-182.53479764 55.23462794 -180.21884138 55.26539892 -177.90234375 55.296875 C-176.27853598 55.30434762 -174.65471911 55.31003572 -173.03089905 55.31402588 C-168.78433759 55.3292021 -164.53833489 55.3684131 -160.29199219 55.4128418 C-155.94799352 55.45396889 -151.60390341 55.4720739 -147.25976562 55.4921875 C-138.75625575 55.53491659 -130.25319764 55.60306871 -121.75 55.6875 C-121.62026291 54.72885544 -121.49052582 53.77021088 -121.3568573 52.78251648 C-121.18261734 51.52357071 -121.00837738 50.26462494 -120.82885742 48.9675293 C-120.65787033 47.72013474 -120.48688324 46.47274017 -120.31071472 45.18754578 C-117.32827105 26.57078939 -105.65981682 9.91589347 -90.625 -1.0625 C-63.01290116 -19.24209699 -27.06036672 -20.12911489 0 0 Z M-93.6640625 16.546875 C-106.10840308 29.81352883 -111.19885532 46.6542574 -111.0234375 64.546875 C-110.16424942 82.53027699 -101.64463948 97.52471844 -88.75 109.6875 C-74.72920294 121.60913818 -58.14573708 127.12847827 -39.76855469 125.89892578 C-22.00887207 124.03875583 -6.1709291 114.83614189 5.30078125 101.36328125 C16.19029044 86.41475661 21.19047653 68.97143103 18.625 50.5 C14.96510596 32.61257088 5.31229227 17.06285558 -9.75 6.6875 C-38.49449433 -10.01358351 -69.8265113 -6.60960331 -93.6640625 16.546875 Z M-199.75 70.6875 C-204.35385954 76.82972561 -204.31756419 82.18117449 -204.25793457 89.68824768 C-204.26417453 90.89464321 -204.2704145 92.10103873 -204.27684355 93.3439917 C-204.29001245 96.68037669 -204.28530837 100.0158575 -204.27289867 103.35218704 C-204.26383514 106.95483397 -204.27782428 110.55740284 -204.28881836 114.16003418 C-204.30659379 121.21240724 -204.30276816 128.2646099 -204.2911678 135.31698961 C-204.2821306 141.04857448 -204.2809107 146.78011163 -204.28526306 152.51170158 C-204.28587599 153.32775238 -204.28648893 154.14380318 -204.28712043 154.98458279 C-204.28839934 156.64241268 -204.2896962 158.30024256 -204.2910108 159.95807242 C-204.30241355 175.49883411 -204.28930732 191.03950137 -204.26780933 206.58024757 C-204.24993525 219.91414135 -204.25304557 233.24789584 -204.27148438 246.58178711 C-204.2928907 262.06886127 -204.30131847 277.55585272 -204.28903532 293.0429396 C-204.28776113 294.69433112 -204.28650365 296.34572264 -204.28526306 297.99711418 C-204.28464596 298.80961752 -204.28402886 299.62212087 -204.28339306 300.45924552 C-204.27993969 306.18427697 -204.28576813 311.90925593 -204.29518127 317.63427925 C-204.30639986 324.61064389 -204.30336413 331.58682851 -204.2820583 338.56317253 C-204.27154637 342.1224586 -204.26742821 345.68144453 -204.28065491 349.24072838 C-204.29477428 353.09856729 -204.27791461 356.95591477 -204.25793457 360.81373596 C-204.26685746 361.93931382 -204.27578034 363.06489168 -204.28497362 364.22457796 C-204.22306508 370.36873578 -203.88087247 374.02482074 -199.75 378.6875 C-195.50134064 382.52165601 -192.51505288 383.81021437 -186.84013748 383.82172108 C-185.31192584 383.82840784 -185.31192584 383.82840784 -183.75284123 383.83522969 C-182.63019769 383.83504533 -181.50755415 383.83486097 -180.35089111 383.83467102 C-179.16086951 383.83834771 -177.97084791 383.8420244 -176.74476504 383.8458125 C-173.43578394 383.8549413 -170.12685245 383.85954945 -166.81786346 383.86220181 C-163.25127898 383.86610452 -159.68470886 383.87568284 -156.11813354 383.88441467 C-147.5022981 383.9041794 -138.88646147 383.91424502 -130.27060902 383.92314246 C-126.21400254 383.9275251 -122.15739737 383.93289195 -118.10079193 383.93813133 C-104.61722205 383.95514315 -91.13365298 383.9696378 -77.65007401 383.97688007 C-74.15083058 383.97878999 -70.65158715 383.98071032 -67.15234375 383.98266602 C-66.28261691 383.98314976 -65.41289008 383.9836335 -64.51680788 383.9841319 C-50.42465926 383.99243398 -36.33259548 384.0177741 -22.24048391 384.05024669 C-7.77506468 384.083308 6.69031142 384.10132797 21.15576863 384.10452431 C29.27869124 384.10669021 37.40149011 384.11545047 45.52437592 384.14098549 C52.44149482 384.16267978 59.35845992 384.1707492 66.27560899 384.16101871 C69.80463164 384.15647034 73.3333369 384.15839093 76.86231613 384.17778015 C80.68932839 384.1986252 84.51590218 384.18843825 88.34295654 384.17524719 C89.4566772 384.18621644 90.57039785 384.19718568 91.71786761 384.20848733 C98.1177984 384.15513031 102.06397329 383.539218 107.25 379.6875 C111.20717042 374.68896894 112.37144253 370.94079186 112.38422108 364.68861771 C112.39090784 363.16879473 112.39090784 363.16879473 112.39772969 361.61826825 C112.39754533 360.50700157 112.39736097 359.39573489 112.39717102 358.25079346 C112.40268605 356.47778842 112.40268605 356.47778842 112.4083125 354.6689651 C112.41743103 351.38698472 112.4220472 348.10503374 112.42470181 344.82304287 C112.42860861 341.28372358 112.43818659 337.74441871 112.44691467 334.20510864 C112.46666696 325.65791012 112.47674307 317.11071044 112.48564246 308.5634948 C112.4900268 304.53790149 112.49539318 300.5123095 112.50063133 296.48671722 C112.51764128 283.10433348 112.53213586 269.72195054 112.53938007 256.33955765 C112.54128994 252.8676478 112.54321028 249.39573795 112.54516602 245.92382812 C112.54564976 245.06091033 112.5461335 244.19799254 112.5466319 243.30892572 C112.55493381 229.32744686 112.58027449 215.34605352 112.61274669 201.36461201 C112.64581659 187.00876749 112.66382871 172.65296643 112.66702431 158.29708362 C112.66918932 150.23730079 112.67793672 142.17764273 112.70348549 134.11789703 C112.72519143 127.2546294 112.73324341 120.39151684 112.72351871 113.52821878 C112.71897384 110.02741799 112.72087065 106.52693717 112.74028015 103.02618027 C112.75792637 99.2278963 112.75092743 95.43042513 112.73774719 91.63214111 C112.74871644 90.52979732 112.75968568 89.42745352 112.77098733 88.29170537 C112.71764336 81.92810597 111.9985532 76.963156 108.25 71.6875 C103.48020045 67.25840042 100.84900143 66.56276306 94.41357422 66.57397461 C93.35975052 66.57375557 93.35975052 66.57375557 92.28463745 66.5735321 C89.95795627 66.57422986 87.63135473 66.58201581 85.3046875 66.58984375 C83.69328861 66.59170842 82.08188916 66.59313209 80.4704895 66.59413147 C76.22571248 66.5979528 71.98096958 66.60777982 67.73620605 66.61883545 C63.40617332 66.62905782 59.07613507 66.63363086 54.74609375 66.63867188 C46.24738016 66.64940242 37.74869432 66.66647425 29.25 66.6875 C29.05954102 67.76999023 28.86908203 68.85248047 28.67285156 69.96777344 C28.41239233 71.41085839 28.15163423 72.85388942 27.890625 74.296875 C27.7663916 75.00763184 27.6421582 75.71838867 27.51416016 76.45068359 C24.31650014 93.96742492 14.15704668 110.0919474 0.0625 120.875 C-18.48161906 133.68730044 -39.24763218 138.55212871 -61.5 134.5 C-82.30453443 129.80149695 -99.24054185 117.61315034 -110.75 99.6875 C-115.77747599 90.49973275 -118.53584078 81.16266058 -120.79003906 71.01074219 C-120.96988342 70.2009491 -121.14972778 69.39115601 -121.33502197 68.55682373 C-121.47196472 67.9399469 -121.60890747 67.32307007 -121.75 66.6875 C-130.88628668 66.59464268 -140.02240983 66.52365561 -149.1590662 66.48025131 C-153.40203128 66.4594148 -157.64467247 66.43116984 -161.88745117 66.38574219 C-165.98531191 66.34214292 -170.08286195 66.3183333 -174.18093681 66.30799103 C-175.74100062 66.3006248 -177.30104826 66.2862402 -178.86097908 66.26457977 C-181.05360202 66.23535686 -183.24495645 66.23155161 -185.43774414 66.23339844 C-186.68350723 66.22451599 -187.92927032 66.21563354 -189.21278381 66.20648193 C-193.39289633 66.77492602 -196.626791 67.79349267 -199.75 70.6875 Z M-245.1875 116.6875 C-247.34529486 120.83046613 -247.87481476 124.04368064 -247.88142776 128.68917561 C-247.88526891 129.70300762 -247.88911005 130.71683964 -247.8930676 131.76139385 C-247.89220112 132.87334265 -247.89133463 133.98529145 -247.89044189 135.13093567 C-247.89341302 136.31364459 -247.89638414 137.49635352 -247.8994453 138.7149021 C-247.9066251 141.9988152 -247.90930458 145.28269642 -247.91004276 148.56661618 C-247.9118942 152.10795943 -247.91944196 155.64929135 -247.92617798 159.19062805 C-247.93975774 166.93441431 -247.94578535 174.6781954 -247.95018864 182.42199159 C-247.95295144 187.25706927 -247.95718884 192.09214496 -247.96169281 196.9272213 C-247.97388459 210.31389776 -247.98418436 223.70057263 -247.9875679 237.08725452 C-247.98778747 237.94396037 -247.98800703 238.80066621 -247.98823325 239.68333284 C-247.98845153 240.54208714 -247.98866981 241.40084144 -247.9888947 242.2856186 C-247.98933817 244.02578024 -247.98978473 245.76594188 -247.99023438 247.50610352 C-247.9904558 248.36928362 -247.99067723 249.23246373 -247.99090537 250.1218008 C-247.99485394 264.11040486 -248.01231014 278.09895684 -248.0355939 292.08754078 C-248.05930546 306.4490309 -248.07176965 320.81049487 -248.07293582 335.17200488 C-248.07385265 343.23564311 -248.07960692 351.29921348 -248.09775543 359.36283302 C-248.11315372 366.2286745 -248.11827847 373.09442714 -248.11001733 379.9602826 C-248.10610995 383.46293045 -248.10704454 386.96539936 -248.12107468 390.46802521 C-248.13373347 394.26654279 -248.12794985 398.06459936 -248.11749268 401.8631134 C-248.12554908 402.96837004 -248.13360548 404.07362668 -248.14190602 405.21237594 C-248.09826262 411.9786231 -247.63876248 417.32286249 -243.06640625 422.6484375 C-242.48761719 423.11507813 -241.90882813 423.58171875 -241.3125 424.0625 C-240.73628906 424.54460937 -240.16007812 425.02671875 -239.56640625 425.5234375 C-236.15052257 427.71254145 -232.7471598 427.81355732 -228.76673508 427.82172108 C-227.75700315 427.82617892 -226.74727123 427.83063676 -225.70694137 427.83522969 C-224.59956563 427.83504533 -223.4921899 427.83486097 -222.35125732 427.83467102 C-220.58437762 427.84018605 -220.58437762 427.84018605 -218.78180337 427.8458125 C-215.51122454 427.85493089 -212.24067521 427.85954717 -208.97008586 427.86220181 C-205.44303659 427.86610867 -201.9160018 427.87568665 -198.38896179 427.88441467 C-189.87142614 427.9041668 -181.35388932 427.91424305 -172.83633649 427.92314246 C-168.82468995 427.92752683 -164.81304473 427.9328932 -160.80139923 427.93813133 C-147.46533863 427.95514126 -134.12927885 427.96963584 -120.79320908 427.97688007 C-117.33333078 427.97878994 -113.87345249 427.98071028 -110.41357422 427.98266602 C-109.55364704 427.98314976 -108.69371986 427.9836335 -107.80773428 427.9841319 C-93.87475423 427.99243379 -79.94185999 428.01777443 -66.00891742 428.05024669 C-51.70279344 428.08331682 -37.39671307 428.10132873 -23.09055066 428.10452431 C-15.05871333 428.1066893 -7.02700119 428.11543638 1.00479889 428.14098549 C7.84427809 428.16269175 14.68360169 428.17074326 21.52311143 428.16101871 C25.01176104 428.15647393 28.50008957 428.15837012 31.98869514 428.17778015 C35.77384285 428.19542698 39.55817499 428.18842714 43.34332275 428.17524719 C44.4417756 428.18621644 45.54022845 428.19718568 46.67196774 428.20848733 C53.03496671 428.15496626 57.96805369 427.41678978 63.25 423.6875 C67.18068795 419.55523831 68.38177982 416.43117071 68.34765625 410.80078125 C68.34282227 409.3940918 68.34282227 409.3940918 68.33789062 407.95898438 C68.32951172 406.98251953 68.32113281 406.00605469 68.3125 405 C68.30798828 404.01193359 68.30347656 403.02386719 68.29882812 402.00585938 C68.28704303 399.56634526 68.27059011 397.12695311 68.25 394.6875 C67.7011494 394.68652319 67.1522988 394.68554638 66.58681637 394.68453997 C34.04449546 394.62624523 1.50225197 394.55243128 -31.03998458 394.45851372 C-34.94893797 394.4472458 -38.85789172 394.43610731 -42.7668457 394.42504883 C-43.54503536 394.42284514 -44.32322503 394.42064146 -45.12499619 394.418371 C-57.71893252 394.38301592 -70.31286879 394.35814169 -82.90683632 394.33715298 C-95.8331313 394.31537667 -108.75936198 394.28230886 -121.68560225 394.23879844 C-129.65930155 394.21231324 -137.63292076 394.19459482 -145.60666186 394.18815396 C-151.72492842 394.18226751 -157.84304838 394.16065742 -163.96125412 394.13322449 C-166.46821262 394.12443478 -168.97519491 394.1207236 -171.4821682 394.12249184 C-174.90803572 394.12414517 -178.33334862 394.10743907 -181.75914001 394.08622742 C-182.74846195 394.09107499 -183.73778388 394.09592257 -184.75708526 394.10091704 C-193.37497142 394.01301212 -200.79330488 392.43723258 -207.24609375 386.43359375 C-211.77844982 381.17135176 -213.86574831 374.96300653 -213.8886652 368.08794022 C-213.89413964 367.16384299 -213.89961409 366.23974576 -213.90525442 365.28764558 C-213.90623253 364.27597754 -213.90721064 363.26430951 -213.90821838 362.22198486 C-213.91315636 361.14459289 -213.91809434 360.06720092 -213.92318195 358.95716071 C-213.93858058 355.33504883 -213.94692402 351.7129547 -213.95532227 348.09082031 C-213.96489893 345.49912865 -213.97490888 342.90743856 -213.98532104 340.31575012 C-214.0070767 334.72985829 -214.02522452 329.14396407 -214.04092598 323.55805206 C-214.0636329 315.48174931 -214.09177459 307.4054727 -214.12124526 299.32919213 C-214.16891108 286.22614614 -214.21217801 273.12308946 -214.25268555 260.02001953 C-214.29204561 247.29116992 -214.33347306 234.56232981 -214.37768555 221.83349609 C-214.38040982 221.04896715 -214.38313409 220.26443821 -214.38594092 219.45613566 C-214.39962048 215.52040734 -214.41334074 211.58467916 -214.42708123 207.64895105 C-214.54103015 174.99515363 -214.64784301 142.34133647 -214.75 109.6875 C-217.91634636 109.56989285 -221.08212074 109.49978976 -224.25 109.4375 C-225.136875 109.40398437 -226.02375 109.37046875 -226.9375 109.3359375 C-234.54983702 109.22399137 -240.26438996 110.62828765 -245.1875 116.6875 Z " fill="#787878" transform="translate(323.75,44.3125)"/>
<path d="M0 0 C1.01402199 -0.00397441 2.02804397 -0.00794881 3.0727939 -0.01204365 C6.48075374 -0.02169106 9.888301 -0.00983355 13.29624939 0.00190735 C15.73529211 -0.00051979 18.17433383 -0.00423834 20.6133728 -0.00915527 C26.55621297 -0.01759883 32.49894262 -0.01204053 38.44176728 0.00010767 C45.35963729 0.01372281 52.27747833 0.01209027 59.19535833 0.00997434 C71.53630529 0.00678399 83.87719454 0.01845523 96.21812439 0.03804016 C108.19893654 0.05704865 120.17968106 0.06412669 132.1605072 0.05854797 C145.20180662 0.05249344 158.24307628 0.05266096 171.28437322 0.06403381 C172.67428712 0.06524112 174.06420102 0.06644711 175.45411491 0.06765175 C176.4799608 0.06855706 176.4799608 0.06855706 177.52653085 0.06948065 C182.35122807 0.07336358 187.17591423 0.07296475 192.00061226 0.0710659 C198.49057902 0.06872519 204.98047091 0.07725514 211.47042274 0.0931263 C213.85735971 0.09738149 216.24430551 0.09821146 218.63124466 0.0954361 C221.8793413 0.09223146 225.12717459 0.10125269 228.37524414 0.11352539 C229.32873231 0.10974607 230.28222049 0.10596674 231.26460224 0.10207289 C232.1319907 0.10790509 232.99937915 0.11373728 233.8930521 0.11974621 C235.01813863 0.12104637 235.01813863 0.12104637 236.16595417 0.12237281 C238.12413025 0.3742218 238.12413025 0.3742218 241.12413025 2.3742218 C242.41099273 5.0398655 242.19887311 6.15299674 241.24641418 8.9720993 C238.80599657 11.73430372 238.36689579 11.75648074 234.85902405 11.99784088 C233.00371385 12.02287319 231.14790926 12.019825 229.29258728 11.99568176 C228.27125261 12.00207058 227.24991795 12.00845941 226.19763374 12.01504183 C222.75867725 12.03036144 219.32086 12.00978354 215.88194275 11.98945618 C213.42334103 11.99295526 210.96474157 11.99861142 208.50614929 12.00627136 C202.51157565 12.01907405 196.5174519 12.00854661 190.52293634 11.98715812 C183.54582156 11.96317529 176.5687847 11.96486081 169.59163785 11.96746403 C157.14471602 11.97115626 144.69795374 11.95031107 132.25108337 11.91621399 C120.16640693 11.88312128 108.08189796 11.86895544 95.99717712 11.87519836 C82.84563239 11.88195897 69.69415788 11.87951156 56.54262352 11.85983896 C55.84748331 11.85879948 55.1523431 11.85775999 54.43613803 11.85668901 C53.03988736 11.85459807 51.64363671 11.8524871 50.2473861 11.85035583 C45.38111994 11.84345367 40.51487538 11.84279201 35.64860535 11.84423828 C29.10197632 11.84582644 22.55552092 11.83096048 16.00893402 11.80501175 C13.6010409 11.79782758 11.19312641 11.79577706 8.78522491 11.79912949 C5.50848675 11.80282245 2.23234295 11.7881726 -1.04432678 11.76863098 C-2.48725507 11.77662287 -2.48725507 11.77662287 -3.95933342 11.78477621 C-4.83430536 11.77571957 -5.70927731 11.76666293 -6.61076355 11.75733185 C-7.36743883 11.75576065 -8.12411411 11.75418944 -8.90371895 11.75257063 C-11.43066254 11.26778714 -12.31950373 10.3892251 -13.87586975 8.3742218 C-14.31336975 5.8742218 -14.31336975 5.8742218 -13.87586975 3.3742218 C-10.21879814 -0.86057155 -5.14206558 -0.03986203 0 0 Z " fill="#AEAEAE" transform="translate(163.87586975097656,208.6257781982422)"/>
<path d="M0 0 C1.30200773 -0.00782324 1.30200773 -0.00782324 2.63031864 -0.01580453 C4.06157408 -0.00911236 4.06157408 -0.00911236 5.52174377 -0.002285 C6.53491134 -0.00540498 7.5480789 -0.00852497 8.59194851 -0.01173949 C12.00293146 -0.01974685 15.41373786 -0.01338515 18.82472229 -0.00710678 C21.26361699 -0.00981543 23.70251087 -0.01337564 26.1414032 -0.0177269 C32.08770476 -0.02591788 38.03393647 -0.02469411 43.98023534 -0.01890162 C48.81185524 -0.01438936 53.64346099 -0.01377033 58.4750824 -0.01594925 C59.50560782 -0.01640895 59.50560782 -0.01640895 60.55695194 -0.01687793 C61.95250615 -0.01751737 63.34806035 -0.0181658 64.74361455 -0.01882312 C77.83730389 -0.02452957 90.93096524 -0.01796358 104.02464998 -0.00722238 C115.26563862 0.00171342 126.50658596 0.00016146 137.74757385 -0.00905991 C150.79362322 -0.01975698 163.83964804 -0.02398022 176.88570118 -0.01783538 C178.27619234 -0.01719826 179.66668351 -0.01656952 181.05717468 -0.01594925 C182.08346305 -0.01548642 182.08346305 -0.01548642 183.13048452 -0.01501425 C187.95767742 -0.01328561 192.78485479 -0.01620602 197.61204529 -0.02090836 C204.10609592 -0.02709522 210.60008042 -0.02270595 217.09412766 -0.01111984 C219.48267868 -0.00846711 221.87123625 -0.00924873 224.2597847 -0.01364517 C227.51011761 -0.01907788 230.76019674 -0.01229413 234.01051331 -0.002285 C234.9646836 -0.00674645 235.91885389 -0.01120789 236.90193844 -0.01580453 C237.76994359 -0.01058903 238.63794874 -0.00537354 239.53225708 0 C240.28285684 0.0003247 241.03345659 0.00064941 241.8068018 0.00098395 C243.76612854 0.25168228 243.76612854 0.25168228 246.76612854 2.25168228 C248.05299102 4.91732598 247.8408714 6.03045722 246.88841248 8.84955978 C244.44799486 11.6117642 244.00889408 11.63394122 240.50102234 11.87530136 C238.64571214 11.90033367 236.78990755 11.89728548 234.93458557 11.87314224 C233.9132509 11.87953106 232.89191624 11.88591989 231.83963203 11.89250231 C228.40067554 11.90782192 224.96285829 11.88724402 221.52394104 11.86691666 C219.06533932 11.87041574 216.60673986 11.8760719 214.14814758 11.88373184 C208.15357394 11.89653453 202.15945019 11.88600708 196.16493464 11.8646186 C189.18781985 11.84063577 182.21078299 11.84232129 175.23363614 11.84492451 C162.78671431 11.84861674 150.33995203 11.82777155 137.89308167 11.79367447 C125.80840522 11.76058176 113.72389625 11.74641592 101.63917542 11.75265884 C88.48763068 11.75941945 75.33615617 11.75697204 62.18462181 11.73729944 C61.4894816 11.73625996 60.79434139 11.73522047 60.07813632 11.73414949 C58.68188565 11.73205855 57.285635 11.72994758 55.88938439 11.72781631 C51.02311823 11.72091415 46.15687367 11.72025249 41.29060364 11.72169876 C34.74397461 11.72328692 28.19751921 11.70842096 21.65093231 11.68247223 C19.2430392 11.67528806 16.83512471 11.67323754 14.42722321 11.67658997 C11.15048504 11.68028293 7.87434124 11.66563308 4.59767151 11.64609146 C3.15474322 11.65408335 3.15474322 11.65408335 1.68266487 11.66223669 C0.80769293 11.65318005 -0.06727901 11.64412341 -0.96876526 11.63479233 C-1.72544054 11.63322113 -2.48211582 11.63164992 -3.26172066 11.63003111 C-5.8020472 11.14268016 -6.71395154 10.31954337 -8.23387146 8.25168228 C-8.10887146 5.18918228 -8.10887146 5.18918228 -7.23387146 2.25168228 C-4.13804416 0.18779741 -3.49924323 0.00151375 0 0 Z " fill="#ADADAD" transform="translate(158.23387145996094,372.74831771850586)"/>
<path d="M0 0 C1.31245791 -0.01358496 1.31245791 -0.01358496 2.65143013 -0.02744436 C3.61338232 -0.02211644 4.57533451 -0.01678851 5.56643677 -0.01129913 C7.09843877 -0.02043579 7.09843877 -0.02043579 8.6613903 -0.02975702 C12.10006546 -0.04646964 15.53837366 -0.0415994 18.9770813 -0.03681183 C21.43568306 -0.04414729 23.89428137 -0.05273197 26.35287476 -0.06247711 C32.34732079 -0.08243921 38.34162134 -0.0880708 44.3360877 -0.08628923 C49.20680766 -0.08498281 54.0774974 -0.08877955 58.94821167 -0.09621429 C60.3499368 -0.09831343 61.75166193 -0.10041103 63.15338707 -0.10250711 C63.85100678 -0.10355064 64.54862649 -0.10459417 65.2673862 -0.10566932 C78.46695079 -0.12457981 91.66645983 -0.12351885 104.86603236 -0.11669999 C116.94984002 -0.11112228 129.03343581 -0.1319581 141.11719394 -0.16506046 C153.51694777 -0.1987656 165.91660001 -0.21396989 178.31640053 -0.20934343 C185.28115157 -0.20709572 192.24570671 -0.21238587 199.2104187 -0.23723602 C205.75708748 -0.26039527 212.30338766 -0.25770528 218.85009003 -0.2373085 C221.25799652 -0.23388157 223.66593227 -0.23905924 226.07379913 -0.25329208 C229.35084139 -0.27133176 232.62635693 -0.25884871 235.90335083 -0.23834991 C236.86530302 -0.25086776 237.82725521 -0.26338561 238.81835747 -0.27628279 C241.22963204 -0.24374927 243.39023757 -0.17863279 245.7348938 0.38311005 C247.89233398 2.75007629 247.89233398 2.75007629 248.7348938 5.38311005 C248.0473938 8.13311005 248.0473938 8.13311005 246.7348938 10.38311005 C244.44441836 11.52834776 243.17280111 11.51030894 240.62686348 11.51453781 C239.76146608 11.51837896 238.89606867 11.5222201 238.0044471 11.52617764 C237.04804609 11.52531116 236.09164507 11.52444468 235.10626221 11.52355194 C233.58885085 11.52800862 233.58885085 11.52800862 232.04078472 11.53255534 C228.62907977 11.54127186 225.2174098 11.54275307 221.80569458 11.54424286 C219.36857019 11.54886891 216.93144654 11.55389328 214.49432373 11.55928802 C207.85802025 11.57243371 201.22173054 11.57889749 194.58541727 11.58329868 C190.44352878 11.58605936 186.30164262 11.59029638 182.15975571 11.59480286 C170.69728047 11.60699653 159.2348071 11.61729581 147.77232552 11.62067795 C147.03843442 11.62089751 146.30454332 11.62111708 145.54841309 11.6213433 C144.81274403 11.62156158 144.07707496 11.62177986 143.3191129 11.62200475 C141.828312 11.62244822 140.3375111 11.62289478 138.84671021 11.62334442 C138.10721799 11.62356585 137.36772577 11.62378728 136.60582469 11.62401542 C124.61968598 11.6279646 112.63360802 11.64542181 100.64749278 11.66870394 C88.34835275 11.69240174 76.04924323 11.70487907 63.75007999 11.70604587 C56.84177714 11.70696349 49.93355345 11.71273767 43.02527237 11.73086548 C36.52958049 11.74785029 30.03401262 11.74953087 23.53829575 11.74072647 C21.1501602 11.7399529 18.76201675 11.7443406 16.37390137 11.75418472 C13.12158322 11.76680816 9.86980627 11.76107972 6.61749268 11.75060272 C5.6655531 11.75865913 4.71361353 11.76671553 3.73282731 11.77501607 C-2.6133744 11.72698039 -2.6133744 11.72698039 -5.85542488 10.01639175 C-7.2651062 8.38311005 -7.2651062 8.38311005 -7.7026062 5.88311005 C-6.89737217 1.28177272 -4.46206496 0.00926528 0 0 Z " fill="#ADADAD" transform="translate(157.26510620117188,263.6168899536133)"/>
<path d="M0 0 C1.31170986 -0.00761181 1.31170986 -0.00761181 2.64991891 -0.0153774 C3.62158774 -0.01587516 4.59325656 -0.01637292 5.59436989 -0.01688576 C7.12993394 -0.02345914 7.12993394 -0.02345914 8.69651949 -0.03016531 C12.15511666 -0.04360798 15.61368832 -0.04974436 19.07230568 -0.0558567 C21.54046178 -0.06375326 24.00861671 -0.07202192 26.4767704 -0.08063698 C33.90393863 -0.10463709 41.33110268 -0.11979132 48.75829643 -0.13269705 C50.85470542 -0.136407 52.95111374 -0.14038038 55.04752207 -0.14444971 C68.0553665 -0.16968303 81.06321193 -0.1917444 94.07107544 -0.20417786 C97.08564571 -0.20710774 100.10021596 -0.21006937 103.11478615 -0.21308327 C104.23872396 -0.21420234 104.23872396 -0.21420234 105.38536759 -0.21534403 C117.53071877 -0.22800489 129.6759238 -0.26123624 141.82120661 -0.3028851 C154.27964048 -0.34525899 166.73799943 -0.36886757 179.19650519 -0.37409842 C186.19596004 -0.37751762 193.19518645 -0.38933223 200.19457054 -0.42220116 C206.77565419 -0.45305443 213.35641083 -0.45864414 219.93758011 -0.4468174 C222.358397 -0.44659549 224.77923167 -0.45499669 227.1999855 -0.47247124 C230.49461535 -0.49496704 233.78777274 -0.48695849 237.082407 -0.47098732 C238.53321806 -0.49181045 238.53321806 -0.49181045 240.01333845 -0.51305425 C242.43641687 -0.48393413 244.60862693 -0.42509418 246.96537209 0.13701439 C249.09477615 2.5343895 249.09477615 2.5343895 249.96537209 5.13701439 C249.77787209 7.38701439 249.77787209 7.38701439 248.96537209 9.13701439 C246.66231574 10.28854256 245.36660282 10.26424414 242.80490303 10.26844215 C241.92782204 10.2722833 241.05074105 10.27612444 240.14708185 10.28008199 C239.17764375 10.27921551 238.20820565 10.27834902 237.20939064 10.27745628 C236.18412128 10.28042741 235.15885192 10.28339853 234.10251379 10.28645968 C230.64468239 10.2951764 227.18688549 10.29665742 223.72904396 10.2981472 C221.25911827 10.30277318 218.78919331 10.30779754 216.31926918 10.31319237 C209.59425986 10.32633738 202.86926413 10.33280145 196.14424515 10.33720303 C191.94809912 10.33996331 187.7519554 10.34420021 183.55581093 10.3487072 C171.94578381 10.36089978 160.33575855 10.37119992 148.72572517 10.37458229 C147.61077959 10.37491164 147.61077959 10.37491164 146.47330984 10.37524764 C145.35565261 10.37557506 145.35565261 10.37557506 144.21541643 10.37590909 C142.70547326 10.37635256 141.1955301 10.37679912 139.68558693 10.37724876 C138.93659825 10.37747019 138.18760956 10.37769162 137.41592425 10.37791976 C125.27000491 10.38187078 113.12414545 10.39933406 100.97824925 10.42260829 C88.51865715 10.44629169 76.05909514 10.45878272 63.59948015 10.45995021 C56.5995797 10.46086854 49.59975732 10.4666606 42.59987831 10.48476982 C36.02047392 10.50173096 29.44119202 10.50344609 22.861763 10.49463081 C20.44053628 10.49385609 18.01930183 10.49825982 15.59809494 10.50808907 C12.30566703 10.52067645 9.01377652 10.51500421 5.72135353 10.50450706 C4.75191543 10.51256347 3.78247733 10.52061987 2.78366232 10.52892041 C1.46804084 10.51903565 1.46804084 10.51903565 0.12584114 10.50895119 C-0.6347937 10.50954828 -1.39542853 10.51014536 -2.17911291 10.51076055 C-4.03462791 10.13701439 -4.03462791 10.13701439 -6.03462791 7.13701439 C-5.3225577 0.0163122 -5.3225577 0.0163122 0 0 Z " fill="#AEAEAE" transform="translate(156.0346279144287,318.8629856109619)"/>
<path d="M0 0 C1.63945963 3.27891925 1.12030178 6.90613534 1.09765625 10.5078125 C1.0962413 11.34843231 1.09482635 12.18905212 1.09336853 13.05514526 C1.08776237 15.74513275 1.07520886 18.43503759 1.0625 21.125 C1.05748579 22.94661338 1.05292275 24.76822807 1.04882812 26.58984375 C1.03779094 31.05992777 1.0205222 35.52994986 1 40 C2.70313354 39.97643433 2.70313354 39.97643433 4.44067383 39.95239258 C8.65056269 39.89811968 12.86042059 39.86365963 17.07055664 39.83520508 C18.89320067 39.8201124 20.71580836 39.79963605 22.53833008 39.77368164 C25.157155 39.73731897 27.77550007 39.72027876 30.39453125 39.70703125 C31.21025101 39.69154739 32.02597076 39.67606354 32.8664093 39.66011047 C38.55124852 39.6584168 38.55124852 39.6584168 40.74711609 41.32987976 C42 43 42 43 41.875 46.0625 C41 49 41 49 38 51 C35.17016801 51.17193073 32.44118127 51.23208437 29.61328125 51.1953125 C28.79627243 51.1924826 27.97926361 51.18965271 27.13749695 51.18673706 C24.52901541 51.17554541 21.9208777 51.1504429 19.3125 51.125 C17.54362475 51.11496888 15.77474412 51.10584326 14.00585938 51.09765625 C9.67044051 51.07560942 5.33527855 51.0410867 1 51 C1.01571045 52.71098877 1.01571045 52.71098877 1.03173828 54.45654297 C1.06787717 58.67949294 1.09087812 62.90242919 1.10986328 67.12548828 C1.11993484 68.95493873 1.13359276 70.78437303 1.15087891 72.61376953 C1.17507677 75.23994934 1.18647132 77.86591675 1.1953125 80.4921875 C1.20563507 81.31306854 1.21595764 82.13394958 1.22659302 82.97970581 C1.22699184 84.98789142 1.1224954 86.99555382 1 89 C-1 91 -1 91 -3.9375 91.375 C-7 91 -7 91 -8.6730957 89.49316406 C-10.55324373 85.96049218 -10.37171124 82.6339591 -10.29296875 78.734375 C-10.28872391 77.94097717 -10.28447906 77.14757935 -10.28010559 76.33013916 C-10.2633504 73.8030768 -10.22570506 71.27682017 -10.1875 68.75 C-10.17244903 67.03386571 -10.15876134 65.31771888 -10.14648438 63.6015625 C-10.11345735 59.40073254 -10.06169765 55.20050275 -10 51 C-11.06959961 51.01571045 -12.13919922 51.0314209 -13.24121094 51.04760742 C-17.21444145 51.10196051 -21.18763916 51.13636951 -25.16113281 51.16479492 C-26.87993905 51.17986933 -28.59870691 51.20033229 -30.31738281 51.22631836 C-32.78980997 51.26276165 -35.261728 51.27973958 -37.734375 51.29296875 C-38.50118591 51.30845261 -39.26799683 51.32393646 -40.05804443 51.33988953 C-43.28677986 51.34090502 -45.61647824 51.2041168 -48.49316406 49.6730957 C-50 48 -50 48 -50.375 44.9375 C-50 42 -50 42 -48 40 C-45.13111419 39.82467711 -42.36007355 39.76862386 -39.4921875 39.8046875 C-38.23125778 39.80893234 -38.23125778 39.80893234 -36.94485474 39.81326294 C-34.25475954 39.8244757 -31.5649949 39.84958197 -28.875 39.875 C-27.05339022 39.8850284 -25.23177523 39.89415449 -23.41015625 39.90234375 C-18.93997642 39.92441858 -14.47004429 39.95895566 -10 40 C-10.01571045 38.39560059 -10.01571045 38.39560059 -10.03173828 36.75878906 C-10.06797406 32.7855159 -10.0909135 28.81225731 -10.10986328 24.83886719 C-10.1199127 23.12009219 -10.13355445 21.40133425 -10.15087891 19.68261719 C-10.17517391 17.21024359 -10.18649368 14.73809631 -10.1953125 12.265625 C-10.21079636 11.11540863 -10.21079636 11.11540863 -10.22659302 9.94195557 C-10.22802864 3.09519029 -10.22802864 3.09519029 -8 0 C-5.09660535 -1.45169732 -3.09125158 -0.72348441 0 0 Z " fill="#ADADAD" transform="translate(282,60)"/>
</svg>
