<?xml version="1.0" encoding="UTF-8"?>
<svg version="1.1" xmlns="http://www.w3.org/2000/svg" width="225" height="225">
<path d="M0 0 C74.25 0 148.5 0 225 0 C225 74.25 225 148.5 225 225 C150.75 225 76.5 225 0 225 C0 150.75 0 76.5 0 0 Z " fill="#FCFCFC" transform="translate(0,0)"/>
<path d="M0 0 C1.68648651 -0.01279495 1.68648651 -0.01279495 3.40704346 -0.02584839 C4.63623505 -0.02494202 5.86542664 -0.02403564 7.13186646 -0.02310181 C8.42979126 -0.02981903 9.72771606 -0.03653625 11.06497192 -0.04345703 C14.62289457 -0.06111599 18.18072099 -0.06581236 21.73868322 -0.0670886 C23.96262072 -0.06851083 26.18653381 -0.07278179 28.41046524 -0.07808304 C36.17210695 -0.09658303 43.93367999 -0.1047537 51.69534302 -0.10317993 C58.92540968 -0.10197856 66.15517779 -0.12307993 73.38516891 -0.15466726 C79.59677115 -0.18083628 85.80827593 -0.19154697 92.01993287 -0.19026911 C95.72800387 -0.18975965 99.43580953 -0.19543354 103.14382553 -0.21662521 C107.2806711 -0.23962249 111.41684959 -0.23048296 115.55374146 -0.21841431 C116.77888458 -0.22965332 118.00402771 -0.24089233 119.26629639 -0.25247192 C125.61545373 -0.20533508 129.73248379 -0.1527469 134.47219849 4.26742554 C137.55046799 7.59708308 137.84848166 9.87759966 137.85314941 14.36468506 C137.86160889 15.61522171 137.87006836 16.86575836 137.87878418 18.15419006 C137.87295138 19.53747689 137.86680688 20.92076243 137.86038208 22.30404663 C137.86444785 23.76286716 137.86978976 25.2216846 137.87631226 26.68049622 C137.8899936 30.64135643 137.88468327 34.60198232 137.875175 38.56284666 C137.86757973 42.70938467 137.87462391 46.85590261 137.8793335 51.00244141 C137.88479266 57.96808472 137.87759652 64.93363264 137.86331177 71.89926147 C137.84699772 79.94725496 137.85226399 87.99502029 137.86879098 96.04300821 C137.88241659 102.95524717 137.88431988 109.86741753 137.87647498 116.77966559 C137.87180271 120.90685299 137.87116104 125.03393326 137.88108444 129.16111374 C137.88976703 133.04356338 137.88370878 136.92571984 137.86640167 140.80813789 C137.86244315 142.23111675 137.86356002 143.65412039 137.87018967 145.07708931 C137.87841988 147.02345 137.86625662 148.96986477 137.85314941 150.91619873 C137.85201834 152.00424994 137.85088726 153.09230114 137.84972191 154.21332359 C137.30573302 158.61410357 135.76258926 161.99302995 132.60110474 165.11532593 C128.52238675 167.32260462 124.0058768 166.7371416 119.47219849 166.70492554 C118.47446411 166.72490601 117.47672974 166.74488647 116.44876099 166.76547241 C109.17128386 166.76059475 109.17128386 166.76059475 105.81985474 164.39633179 C104.47219849 162.26742554 104.47219849 162.26742554 103.90969849 159.76742554 C104.72349819 156.15053798 106.40877339 155.26549171 109.47219849 153.26742554 C112.76907349 152.72836304 112.76907349 152.72836304 116.22219849 152.64242554 C118.30839242 152.58161719 120.39524524 152.47277402 122.47219849 152.26742554 C123.76156739 149.68868772 123.60099039 147.84176688 123.60591125 144.95321655 C123.61017624 143.8258609 123.61444122 142.69850525 123.61883545 141.5369873 C123.61838226 140.29432098 123.61792908 139.05165466 123.61746216 137.77133179 C123.62082077 136.46727386 123.62417938 135.16321594 123.62763977 133.81964111 C123.6364893 130.23709021 123.63881825 126.65456318 123.63945556 123.07200241 C123.64040378 120.08472343 123.64408098 117.09745005 123.64762765 114.11017323 C123.65577545 107.06525706 123.65821155 100.02035368 123.65750122 92.97543335 C123.65689999 85.69884355 123.66746013 78.42232778 123.68324488 71.14575672 C123.69630136 64.90539353 123.70168593 58.6650546 123.70104581 52.42467785 C123.70079031 48.69442838 123.70367011 44.9642447 123.71422386 41.23400879 C123.72566339 37.07712706 123.72116969 32.92041231 123.71511841 28.76351929 C123.72073792 27.52085297 123.72635742 26.27818665 123.73214722 24.99786377 C123.72795273 23.87050812 123.72375824 22.74315247 123.71943665 21.58163452 C123.71998141 20.59791367 123.72052618 19.61419281 123.72108746 18.60066223 C123.6987315 16.07521492 123.6987315 16.07521492 121.47219849 14.26742554 C119.28773108 13.96354902 119.28773108 13.96354902 116.72744751 14.01345825 C115.72630417 14.0078186 114.72516083 14.00217896 113.69367981 13.99636841 C112.59127457 14.00041687 111.48886932 14.00446533 110.35305786 14.00863647 C109.1953035 14.00513184 108.03754913 14.0016272 106.8447113 13.99801636 C103.00173012 13.98918371 99.15893168 13.99505369 95.31594849 14.00180054 C92.65558643 14.00045433 89.99523003 13.99851751 87.33486938 13.9960022 C81.75285852 13.99236094 76.17090054 13.9971658 70.58889771 14.00668335 C64.13026934 14.01756824 57.67176723 14.01404277 51.21314192 14.00303054 C45.67340242 13.99396217 40.13370099 13.99267017 34.59395647 13.99790788 C31.2828939 14.00103008 27.9719039 14.00064789 24.6608429 13.9948349 C20.97092035 13.9897791 17.28124328 13.99746676 13.59133911 14.00863647 C12.48893387 14.00458801 11.38652863 14.00053955 10.25071716 13.99636841 C9.24957382 14.00200806 8.24843048 14.00764771 7.21694946 14.01345825 C6.34384377 14.0142123 5.47073807 14.01496635 4.57117462 14.01574326 C2.25328537 14.07440965 2.25328537 14.07440965 0.47219849 16.26742554 C0.01408174 18.23977887 0.01408174 18.23977887 -0.15280151 20.39242554 C-0.33842651 22.31055054 -0.33842651 22.31055054 -0.52780151 24.26742554 C0.51345383 24.2607637 1.55470917 24.25410187 2.6275177 24.24723816 C12.44159517 24.1864163 22.25563439 24.14144771 32.0698576 24.11198902 C37.1154281 24.09633486 42.16084642 24.07510102 47.20632935 24.04110718 C52.07574268 24.00850501 56.94500964 23.99057064 61.8145237 23.98279381 C63.67206946 23.97725185 65.52960724 23.96642978 67.38709068 23.95023537 C69.98944774 23.92844967 72.59120042 23.92545908 75.19363403 23.92684937 C75.96111969 23.91606354 76.72860535 23.90527771 77.51934814 23.89416504 C82.03386692 23.92025279 84.91580749 24.43437084 88.47219849 27.26742554 C91.49886361 30.37675423 91.85293629 32.6113033 91.87625122 36.89047241 C91.89527748 38.58242737 91.89527748 38.58242737 91.91468811 40.30856323 C91.91175247 41.52217529 91.90881683 42.73578735 91.90579224 43.98617554 C91.91103409 45.23620361 91.91627594 46.48623169 91.92167664 47.7741394 C91.92810064 50.41724131 91.92819378 53.05947997 91.91824341 55.70248413 C91.9067464 59.08555506 91.92697808 62.46758331 91.95616055 65.85051727 C91.97893879 69.08324209 91.97205571 72.31588926 91.96829224 75.54867554 C91.97952621 76.7622876 91.99076019 77.97589966 92.00233459 79.22628784 C91.99295364 80.35425781 91.98357269 81.48222778 91.97390747 82.64437866 C91.9737413 83.63603027 91.97357513 84.62768188 91.97340393 85.64938354 C91.33323208 88.99331525 90.10785566 90.17899224 87.47219849 92.26742554 C84.97219849 92.82992554 84.97219849 92.82992554 82.47219849 92.26742554 C79.96829753 90.08242852 78.6407446 88.27365966 78.08560181 84.95941162 C77.91236102 82.06028351 77.86630775 79.18346733 77.86282349 76.27914429 C77.84628723 75.22080887 77.82975098 74.16247345 77.81271362 73.07206726 C77.76422044 69.69962772 77.74285903 66.32763919 77.72219849 62.95492554 C77.69404002 60.66518929 77.66411278 58.37547406 77.63235474 56.08578491 C77.55846119 50.47974703 77.50682633 44.87383605 77.47219849 39.26742554 C75.03022389 38.04643824 73.45764469 38.13895313 70.72744751 38.13371277 C69.2257325 38.12731529 69.2257325 38.12731529 67.69367981 38.12078857 C66.04007195 38.12146835 66.04007195 38.12146835 64.35305786 38.12216187 C62.61642632 38.11712395 62.61642632 38.11712395 60.8447113 38.11198425 C57.00177958 38.10245274 53.15889131 38.10053014 49.31594849 38.09945679 C47.32744572 38.09705695 45.33894294 38.09465558 43.3504405 38.09199637 C37.09658967 38.08384961 30.84275323 38.08141238 24.58889771 38.0821228 C18.1302776 38.08272403 11.6717409 38.07216374 5.21314192 38.05637914 C-0.32659058 38.04332097 -5.86629575 38.03793816 -11.40604353 38.03857821 C-14.71711566 38.03883366 -18.02809667 38.03504444 -21.3391571 38.02540016 C-25.02906318 38.01565778 -28.71875169 38.01845535 -32.40866089 38.02450562 C-33.51106613 38.01888611 -34.61347137 38.0132666 -35.74928284 38.00747681 C-36.75042618 38.0116713 -37.75156952 38.01586578 -38.78305054 38.02018738 C-39.65615623 38.01964261 -40.52926193 38.01909784 -41.42882538 38.01853657 C-43.74682685 38.07383443 -43.74682685 38.07383443 -45.52780151 40.26742554 C-45.83278178 42.82088125 -45.83278178 42.82088125 -45.7817688 45.84738159 C-45.78740845 47.03363632 -45.7930481 48.21989105 -45.79885864 49.4420929 C-45.79481018 50.75021439 -45.79076172 52.05833588 -45.78659058 53.40609741 C-45.78929948 54.79229415 -45.79285984 56.17848945 -45.79721069 57.56468201 C-45.80634902 61.33527449 -45.80278454 65.10575785 -45.79645252 68.87635231 C-45.79139997 72.81656826 -45.79608189 76.75677467 -45.79922485 80.69699097 C-45.80286668 87.31472456 -45.79805974 93.93241356 -45.7885437 100.55014038 C-45.77765872 108.20845663 -45.78118415 115.8666664 -45.79219651 123.52498007 C-45.80126324 130.09231018 -45.80255769 136.65960819 -45.79731917 143.22694254 C-45.79419608 147.15280306 -45.7937994 151.07861349 -45.80039215 155.00447083 C-45.80615608 158.69476256 -45.80218634 162.3849166 -45.79060364 166.07519341 C-45.78668381 168.08104639 -45.79265081 170.08691097 -45.79885864 172.09275818 C-45.79039917 173.87214027 -45.79039917 173.87214027 -45.7817688 175.68746948 C-45.78063772 177.24048138 -45.78063772 177.24048138 -45.7794838 178.82486725 C-45.76886597 181.44696492 -45.76886597 181.44696492 -43.52780151 183.26742554 C-41.01506656 183.46901264 -38.61059367 183.54749702 -36.09640503 183.53866577 C-35.33039978 183.54389252 -34.56439453 183.54911926 -33.775177 183.55450439 C-32.10932532 183.56475806 -30.44344148 183.57052718 -28.77755928 183.57238579 C-26.14263463 183.5760388 -23.50808999 183.59273541 -20.87324524 183.61314392 C-13.38113459 183.6686618 -5.88896754 183.69926612 1.603302 183.72372437 C6.18335923 183.73957925 10.76314725 183.76977688 15.34306526 183.80848885 C17.09056813 183.82015812 18.83811911 183.82606936 20.58566093 183.82616997 C23.02786313 183.82636154 25.46932063 183.84459173 27.91140747 183.86679077 C28.99857811 183.859925 28.99857811 183.859925 30.10771179 183.85292053 C33.00266904 183.89486057 34.99474376 183.93816488 37.41740417 185.60887146 C39.10906784 188.2688362 38.91047794 190.19946938 38.47219849 193.26742554 C36.96069336 195.42549133 36.96069336 195.42549133 34.47219849 197.26742554 C31.5939188 197.66719121 29.09674439 197.82494033 26.21878052 197.8008728 C25.3890271 197.80948837 24.55927368 197.81810394 23.70437622 197.82698059 C20.96260337 197.84967492 18.22184997 197.84289452 15.48001099 197.83383179 C13.57195736 197.83906661 11.66390632 197.84534256 9.75585938 197.85261536 C5.75607125 197.86302653 1.75663871 197.85844895 -2.24313354 197.84384155 C-7.36358516 197.82667042 -12.48291291 197.85012447 -17.60323906 197.88533115 C-21.54444791 197.90731792 -25.48538852 197.90586028 -29.42663956 197.89756584 C-31.31404984 197.89674668 -33.2014799 197.9036034 -35.08883286 197.91833687 C-37.7317835 197.93580254 -40.37272385 197.92122375 -43.01559448 197.89852905 C-44.180056 197.91606735 -44.180056 197.91606735 -45.36804199 197.93395996 C-49.29935067 197.86544642 -51.79988593 197.44793275 -54.93481445 194.97798157 C-59.0881671 190.63631121 -59.77759327 187.89645003 -59.79522705 181.90441895 C-59.80375702 180.59498322 -59.81228699 179.28554749 -59.82107544 177.93643188 C-59.82037643 176.48702991 -59.81945337 175.03762803 -59.81832886 173.58822632 C-59.8243138 172.06044181 -59.83111927 170.53266032 -59.83868408 169.00488281 C-59.85635468 164.85607263 -59.8610399 160.70734494 -59.86231565 156.55850077 C-59.8637372 153.96604333 -59.86800686 151.37360686 -59.87331009 148.78115463 C-59.89181379 139.73571185 -59.89998027 130.69032802 -59.89840698 121.64486694 C-59.89720545 113.21512342 -59.9183092 104.78563589 -59.94989431 96.35595715 C-59.97605154 89.11676458 -59.98677451 81.87765564 -59.98549616 74.63841617 C-59.98498637 70.31555552 -59.99067905 65.99292235 -60.01185226 61.6701088 C-60.03122547 57.60377063 -60.03136566 53.53787719 -60.016819 49.47152328 C-60.01472865 47.98080546 -60.01944538 46.49005987 -60.03153992 44.99938965 C-60.04700373 42.96111589 -60.03528026 40.92269036 -60.02227783 38.88439941 C-60.02336737 37.7447278 -60.0244569 36.60505619 -60.02557945 35.43084908 C-59.33030853 31.01233986 -57.3312202 27.70799267 -53.82174683 24.90463257 C-50.18884752 23.89549387 -46.56273377 24.02450838 -42.82467651 24.07211304 C-41.9868866 24.07494293 -41.14909668 24.07777283 -40.28591919 24.08068848 C-37.61639988 24.09186205 -34.94721901 24.11696133 -32.27780151 24.14242554 C-30.46530637 24.15245899 -28.65280595 24.16158421 -26.84030151 24.16976929 C-22.40267159 24.19179214 -17.96529389 24.2263025 -13.52780151 24.26742554 C-13.57420776 23.09824585 -13.62061401 21.92906616 -13.66842651 20.72445679 C-13.70595746 19.17630533 -13.7423562 17.62812614 -13.77780151 16.07992554 C-13.81131714 15.31099976 -13.84483276 14.54207397 -13.87936401 13.74984741 C-13.94668741 9.82825978 -13.8332708 7.77361247 -11.76217651 4.34164429 C-7.9578475 0.81000319 -5.16358321 0.01771991 0 0 Z " fill="#353535" transform="translate(73.52780151367188,13.732574462890625)"/>
<path d="M0 0 C9.14653075 7.39926989 15.14845443 17.33526292 17 29 C17.92637065 38.17685923 16.36725788 47.78268549 11.30078125 55.6328125 C9.8035373 57.83130394 9.8035373 57.83130394 10.18237305 59.90429688 C11.23277363 62.59663446 12.67005093 63.93047755 14.78125 65.8984375 C15.54050781 66.62546875 16.29976563 67.3525 17.08203125 68.1015625 C18.69011692 69.61352673 20.30208801 71.12136946 21.91796875 72.625 C27.75200785 78.23122433 27.75200785 78.23122433 29.09375 82.390625 C29 85 29 85 28 87.375 C25.70903679 89.23640761 24.06416703 89.72051205 21.11279297 89.65087891 C16.08092426 88.10073308 12.55593494 83.23518595 9.0625 79.5 C8.18787109 78.59378906 7.31324219 77.68757813 6.41210938 76.75390625 C4.25813216 74.51753646 2.12216064 72.26651452 0 70 C-2.50528976 70.99976719 -5.00775938 72.00321287 -7.5 73.03515625 C-8.7375 73.54369141 -8.7375 73.54369141 -10 74.0625 C-11.2375 74.57490234 -11.2375 74.57490234 -12.5 75.09765625 C-22.12814226 78.57281385 -33.08160025 78.19189637 -42.47265625 74.26171875 C-55.82837283 67.59418172 -62.7327215 58.77245113 -68 45 C-70.63661333 33.92622399 -69.03035853 23.4683589 -63.64453125 13.48828125 C-57.2706388 3.42334117 -48.73479821 -3.83151579 -37.1875 -7.375 C-24.00775068 -10.00012461 -11.00072534 -7.70050774 0 0 Z " fill="#333333" transform="translate(152,117)"/>
<path d="M0 0 C7.0850932 4.70260588 11.2071066 10.93613762 13.61328125 19.07421875 C15.16147182 26.78389501 13.55590931 34.37970241 9.78125 41.203125 C4.92975127 48.26475093 -1.78922838 52.70429307 -10 55 C-19.61280333 56.29835266 -26.99447811 54.44134721 -35 49 C-37.49263144 46.8935509 -39.27072928 44.75996188 -41 42 C-41.40992187 41.37867188 -41.81984375 40.75734375 -42.2421875 40.1171875 C-46.47318597 32.44303165 -46.49430982 22.30238968 -44.15234375 13.9921875 C-40.48211227 5.85547092 -33.80917148 -0.0491705 -25.546875 -3.33984375 C-16.69613342 -5.63397769 -7.89119494 -4.55365187 0 0 Z " fill="#FCFCFC" transform="translate(142,126)"/>
<path d="M0 0 C1.11755676 -0.00788544 1.11755676 -0.00788544 2.25769043 -0.01593018 C4.72221807 -0.02914123 7.18610047 -0.02038763 9.65063477 -0.01025391 C11.36312484 -0.01227455 13.07561407 -0.0151859 14.7881012 -0.01895142 C18.37851142 -0.02337643 21.96869782 -0.01693888 25.55908203 -0.00292969 C30.16050028 0.0141495 34.76139311 0.00433034 39.36279202 -0.01364708 C42.89984592 -0.02449119 46.43677542 -0.02103549 49.97383308 -0.0132637 C51.67029953 -0.01126276 53.36677727 -0.01371728 55.06323051 -0.02070236 C57.43568675 -0.02832584 59.80729442 -0.01670023 62.1796875 0 C63.23105644 -0.00910904 63.23105644 -0.00910904 64.30366516 -0.0184021 C67.31929436 0.02090229 69.4159609 0.26052368 72.09437561 1.69369507 C73.65454102 3.38818359 73.65454102 3.38818359 74.09204102 6.88818359 C73.65454102 10.38818359 73.65454102 10.38818359 72.59301758 12.08267212 C69.63915505 14.07201855 66.64204631 13.80563613 63.20141602 13.77636719 C62.06681946 13.78425262 62.06681946 13.78425262 60.90930176 13.79229736 C58.40750516 13.80550773 55.90634416 13.79675592 53.40454102 13.78662109 C51.66723508 13.78864154 49.92992998 13.79155273 48.19262695 13.7953186 C44.55094328 13.79974335 40.9094803 13.79330613 37.26782227 13.77929688 C32.59680617 13.76220481 27.92630717 13.7720452 23.25531006 13.79001427 C19.66768488 13.80084809 16.08018256 13.79740763 12.49255371 13.78963089 C10.77014098 13.78762777 9.04771714 13.79009209 7.32531738 13.79706955 C4.91913246 13.80467755 2.51378822 13.79308972 0.10766602 13.77636719 C-0.96312195 13.78547623 -0.96312195 13.78547623 -2.05554199 13.79476929 C-4.90757905 13.75799592 -6.8842831 13.69814845 -9.2878418 12.08267212 C-11.0853664 9.20272193 -10.6972103 6.67119589 -10.34545898 3.38818359 C-7.88101253 -0.53532907 -4.18669574 -0.03616899 0 0 Z " fill="#313131" transform="translate(58.345458984375,73.61181640625)"/>
<path d="M0 0 C1.2148407 -0.00430527 1.2148407 -0.00430527 2.45422363 -0.00869751 C4.16561584 -0.01073792 5.87703138 -0.00520959 7.58837891 0.00732422 C10.2091889 0.02337893 12.82845677 0.00747556 15.44921875 -0.01171875 C17.11198257 -0.00973631 18.77474544 -0.00589263 20.4375 0 C21.22193481 -0.00607269 22.00636963 -0.01214539 22.8145752 -0.0184021 C28.18956594 0.05114423 28.18956594 0.05114423 30.70898438 1.70458984 C32.45737907 4.63746277 32.1314985 7.09644951 31.71875 10.3984375 C29.25839233 13.14501216 27.70790257 13.39957212 24.00756836 13.78662109 C22.52470412 13.80635018 21.04154156 13.808765 19.55859375 13.796875 C18.37916954 13.80118027 18.37916954 13.80118027 17.17591858 13.80557251 C15.51758095 13.80760992 13.85921911 13.80210262 12.20092773 13.78955078 C9.66140157 13.77347012 7.12346163 13.78942046 4.58398438 13.80859375 C2.97135065 13.80661168 1.35871792 13.80276875 -0.25390625 13.796875 C-1.01333023 13.80294769 -1.77275421 13.80902039 -2.55519104 13.8152771 C-7.75516499 13.74578475 -7.75516499 13.74578475 -10.25952148 12.09228516 C-12.00339399 9.20124873 -11.63148485 6.66729611 -11.28125 3.3984375 C-8.78552151 -0.80432081 -4.34738839 -0.03365526 0 0 Z " fill="#2F2F2F" transform="translate(59.28125,105.6015625)"/>
<path d="M0 0 C1.50336914 -0.0299707 1.50336914 -0.0299707 3.03710938 -0.06054688 C10.32432649 -0.05568549 10.32432649 -0.05568549 13.7578125 2.23828125 C15.0625 4.4375 15.0625 4.4375 15 8.0625 C14.0625 11.4375 14.0625 11.4375 11.0625 13.4375 C7.59779062 13.86910204 4.11371409 13.76173071 0.625 13.75 C-0.80682617 13.77416992 -0.80682617 13.77416992 -2.26757812 13.79882812 C-3.18861328 13.79947266 -4.10964844 13.80011719 -5.05859375 13.80078125 C-5.8983374 13.80376221 -6.73808105 13.80674316 -7.60327148 13.80981445 C-10.49377116 13.34877356 -11.86050536 12.4826994 -13.9375 10.4375 C-14.6829763 4.47368962 -14.6829763 4.47368962 -12.72045898 1.74584961 C-9.12047218 -0.89584959 -4.29727322 -0.03028187 0 0 Z " fill="#333333" transform="translate(61.9375,137.5625)"/>
</svg>
